<svg xmlns="http://www.w3.org/2000/svg" xmlns:xlink="http://www.w3.org/1999/xlink" width="89" height="89" viewBox="0 0 89 89"><defs><style>.a,.f{fill:#fff;}.a{stroke:#707070;}.b{fill:#def2fc;}.c{clip-path:url(#a);}.d{fill:#b1e1f7;}.e{fill:#f7f4e2;}.g{fill:#d1d1d1;}.h{fill:#101010;}</style><clipPath id="a"><circle class="a" cx="44.5" cy="44.5" r="44.5" transform="translate(-12846 5578)"/></clipPath></defs><g transform="translate(-1106 -191)"><circle class="b" cx="44.5" cy="44.5" r="44.5" transform="translate(1106 191)"/><g class="c" transform="translate(13952 -5387)"><g transform="translate(-13131 3797)"><path class="d" d="M6040.18,7215.166a130.127,130.127,0,0,0-25.229-14.666,8.97,8.97,0,0,0-2.412-.7c-13.7-8.727-29.561-13.619-45.051-18.116-1.845-.536-3.809-1.183-5.844-1.893a65.823,65.823,0,0,0-12.825-5.123,9.421,9.421,0,0,0-1.826-.32c-4.86-1.812-9.621-3.492-13.8-4.573-2.76-.714-3.693.287-4.436,2.451-3.629-.28-4.485,1.312-.674,2.435-.177,2.7,6.819,2.612,8.609,2.548,3.175.946,6.31,2.1,9.426,3.3.132.226.216.357.216.357,4.8,1.272,10.745,4.192,16.088,7.024,4.956,3.733,9.8,7.685,15.2,10.5,2.8,2.922,5.511,5.905,9.372,7.876.427.218.85.443,1.274.665a60.247,60.247,0,0,0,5.756,6.386A112,112,0,0,1,6009.3,7230.9a4.712,4.712,0,0,0,6.275,1.646c2-1.169,3.082-4.243,1.646-6.275-.141-.2-.281-.392-.423-.588a38.348,38.348,0,0,1,6.087,6.411,8.26,8.26,0,0,0,1.168,1.293c-.44.075-.88.153-1.321.224-17.719,1.994-36,.3-53.665-1.907a124.434,124.434,0,0,1-24.382-6.9q-13.211-4.954-26.421-9.917c-4.165-1.564-10.248-.343-13.952,1.825-3.756,2.2-7.339,6.5-8.32,10.821-1.058,4.635-.828,9.838,1.824,13.952,2.685,4.164,6.188,6.582,10.821,8.321l22.405,8.411c7.217,2.709,14.43,5.6,21.979,7.266,9.039,1.991,18.371,2.7,27.573,3.575,7.806.74,15.627,1.391,23.47,1.55a155.237,155.237,0,0,0,30.451-2.442c4.231-.756,8.729-4.746,10.822-8.322a18.889,18.889,0,0,0,2.111-12.892c2.707-.3,5.468-2.1,5.9-4.877C6055.1,7230.667,6048.91,7221.8,6040.18,7215.166Z" transform="translate(-5559.914 -5342.607)"/><g transform="translate(303.839 1799.103)"><path d="M5870.006,7112.429c-3.1,1.924-6.19,4.239-9.5,5.789-2.941,1.378-6.451.635-9.6.941a35.224,35.224,0,0,0-5.786,1.01c-1.658.448-3.245,1.264-4.916,1.634-1.581.35-2.187-.7-3.574-1.3a4.927,4.927,0,0,0-4.57.116c-2.871,1.761-2.769,5.655-.7,7.967,1.746,1.948,4.682,4.334,7.453,3.512,1.489-.443,2.519-1.72,3.815-2.5a20.289,20.289,0,0,1,4.322-1.765c3.867-1.249,7.759-2.429,11.637-3.643,4.139-1.3,2.371-7.823-1.8-6.519-5.557,1.739-11.7,3.006-16.885,5.71-.4.212-3.313,1.737-3.285,2.283-.028-.541,2.884.916.914-.636q-.287-.218-.565-.447-1.569-1.51-3.163,2.037c.424.763,2.5,1.6,3.3,1.845a8.63,8.63,0,0,0,4.1.047c2.85-.562,5.46-1.922,8.355-2.408,2.683-.448,5.368-.179,8.063-.369,5.982-.421,10.855-4.406,15.787-7.464,3.689-2.289.3-8.14-3.412-5.837Z" transform="translate(-5829.854 -7111.901)"/></g><g transform="translate(309.02 1810.761)"><path class="e" d="M5867.5,7166.142c5.112-2.39,7.4-8.075,2.771-12.231-4.3-3.857-9.932-3.015-14.9-1.147l3.478,8.249,8.053-5.523c4.43-3.038,1.508-8.927-3.478-8.248a91.258,91.258,0,0,0-14.115,3.085l5.55,3.153a26.115,26.115,0,0,1-.988-4.967l-1.32,3.191a18.082,18.082,0,0,1,3-1.712c.116-.068,1.933-1.183,1.96-1.146l-1.138-.045c.274.166.547.334.817.508,1.344,1.02,2.685,1.728,3.185,3.446l4.352-5.713c-3.437-.447-4.205-4.6-6.9-6.086-2.183-1.208-4.579-.532-6.829.022l-7.264,1.788,3.478,8.248c3.364-2.354,7.176-5.4,11.394-5.92,2.419-.3,4.514-1.861,4.514-4.513,0-2.206-2.077-4.815-4.514-4.514-6.094.754-11,3.689-15.949,7.153-4.087,2.858-1.7,9.522,3.478,8.248,3.27-.806,6.545-1.767,9.855-2.379h-2.4l-.642-.46a9.184,9.184,0,0,0,.633.915c.367.509.754,1.011,1.164,1.484a15.9,15.9,0,0,0,3.011,2.627,15.3,15.3,0,0,0,6.97,2.41c2.95.385,5.085-3.187,4.352-5.711-1.477-5.082-7.966-11.806-13.793-10.351a17.493,17.493,0,0,0-4.29,2.192,24.686,24.686,0,0,0-4.441,2.767c-3.058,2.837-1.125,7.429-.393,10.913a4.555,4.555,0,0,0,5.55,3.151,91.285,91.285,0,0,1,14.117-3.086l-3.478-8.247-8.054,5.521a4.555,4.555,0,0,0-1.846,5.637c.833,1.9,3.187,3.416,5.323,2.611a14.983,14.983,0,0,1,4.78-1.36,2.9,2.9,0,0,1,1.072.117c1.393.55.067,1.023.266-.648l.615-2.276a4.6,4.6,0,0,1-1.557,1.051c-2.208,1.032-2.769,4.208-1.619,6.174a4.615,4.615,0,0,0,6.174,1.619Z" transform="translate(-5840.583 -7136.045)"/></g><g transform="translate(332.132 1812.673)"><path class="f" d="M5888.745,7142.57a46.444,46.444,0,0,0,5.543-2.125c.282-.129.037-.545-.244-.416a45.369,45.369,0,0,1-5.427,2.075c-.3.092-.17.56.128.466Z" transform="translate(-5888.449 -7140.005)"/></g><g transform="translate(298.878 1796.341)"><path d="M5827.806,7128.6a5.111,5.111,0,0,1-3.771-3.015l-.866,3.3a2.774,2.774,0,0,1,2.146-.011l-1.687-1.687.869-1.1,2.328,3.056a2.839,2.839,0,0,1,.651-1.286q1.137-.541.083-1.577c-.929-2.178-.636-.034-1.929.522l1.861-.244q-.82,2.886.851,2.349l-2.327-3.057a2.09,2.09,0,0,0,.98.344l-3.792-.488,2.247-.395-3.056-2.327,0-.412,2.971,1.686-.021-.068-3.792-2.925-1.207,2.45,4.412,1.86c.573-1.994,1.244-3.987,1.71-6.01.246-1.075.046-2.943,1.395-3.008,1.367-.064,2.071,2.018,2.908,2.881a5.322,5.322,0,0,0,3.6,1.644c5.314.273,10.1-5.782,10.941-10.57l-4.742-.641a13.8,13.8,0,0,0,1.351,6.326c1.255,2.519,3.546,2.961,6.205,2.629,6.675-.832,13.256-4.034,18.582-8.038l-3.548-2.728a3.364,3.364,0,0,1-1.871,2.862c-2.729,1.49-.294,5.661,2.436,4.171a7.747,7.747,0,0,0,4.092-5.75c.252-1.778-1.642-4.158-3.546-2.726a39.877,39.877,0,0,1-12.59,6.472,31.6,31.6,0,0,1-3.2.812,5.741,5.741,0,0,1-1.818.224c-.434-.071.033.322-.471-.136-.735-.669-.828-3.138-.792-4.118.1-2.668-4.265-3.357-4.742-.643a9.89,9.89,0,0,1-4.4,6.486c-2.732,1.628-3.295-2.211-5.493-3.33-2.521-1.285-6.29-.74-7.778,1.827a12.983,12.983,0,0,0-1.125,3.812c-.478,2.112-1.164,4.188-1.762,6.269-.738,2.571,3.181,4.361,4.413,1.86l1.207-2.451c1.135-2.306-1.9-5.135-3.791-2.926a4.989,4.989,0,0,0-1.222,4.767,2.48,2.48,0,0,0,2.97,1.686,4.22,4.22,0,0,0,3.542-4.243,2.428,2.428,0,0,0-3.056-2.328c-3.145,1.08-5.166,5.545-1.491,7.558,3.286,1.8,6.3-1.919,4.7-4.945a2.448,2.448,0,0,0-3.793-.489,4.533,4.533,0,0,0,.2,7c2.63,1.919,5.974.163,6.889-2.643a2.427,2.427,0,0,0-2.328-3.056c-2.611.259-5.667,1.88-4.491,5.061a3.187,3.187,0,0,0,3,2.162c1.744-.05,2.8-1.521,3.754-2.78,1.732-2.289,1.762-5.65-1.783-6.1-3.267-.414-5.783,2.646-6.651,5.439a2.443,2.443,0,0,0,2.328,3.057,3.774,3.774,0,0,0,3.788-5.008c-1.146-2.937-5.32-2.182-7.554-1.189-1.25.557-1.388,2.241-.865,3.3a9.723,9.723,0,0,0,6.656,5.233c3.025.692,4.315-3.962,1.284-4.656Z" transform="translate(-5819.579 -7106.18)"/></g><g transform="translate(314.496 1840.823)"><path class="e" d="M5854.65,7202.814c.24,3.491-1.06,6.081-2.07,9.317a13.392,13.392,0,0,0,.333,9.208c2.412,5.971,8.064,11.4,14.7,11.894a8.778,8.778,0,0,0,8.142-3.667c1.87-2.906,1.274-6.608.744-9.812a38.317,38.317,0,0,0-8.024-17.363c-1.664-2.12-6.021-1.589-7.088.913-2.382,5.6-1.711,11.032.765,16.486a38.055,38.055,0,0,0,3.742,6.646,12.007,12.007,0,0,0,3.274,3.133c.4.257.831.464,1.246.7,1.329.742.448.463.489-.164-.379,5.8,8.647,5.774,9.025,0a7.6,7.6,0,0,0-3.278-6.546c-1.729-1.3-3.1-1.713-4.227-3.638-1.913-3.259-4.92-8.122-3.243-12.06l-7.087.914a28.7,28.7,0,0,1,5.14,10.67c.09.356,1.068,5.787.769,5.767q1.269-1.266.646-.978a.8.8,0,0,1-.666.013,12.38,12.38,0,0,1-1.572-.5c-2.541-1.207-5.724-4.743-5.521-7.728.135-1.99,1.434-3.973,2-5.862a20.626,20.626,0,0,0,.781-7.336,4.621,4.621,0,0,0-4.512-4.513c-2.313,0-4.683,2.068-4.514,4.513Z" transform="translate(-5851.922 -7198.302)"/></g><g transform="translate(352.542 1819.679)"><path class="e" d="M5937.494,7164.075a5.42,5.42,0,0,1,.75-.479q-.608.229.158-.022.807-.173.116-.038a6.452,6.452,0,0,1,.891.017c-1.159-.147,1.294.45.268.136q.668.437.176.053a5.45,5.45,0,0,1,.616.64,4.513,4.513,0,0,0,6.382-6.382,10.885,10.885,0,0,0-13.912-1.718,4.632,4.632,0,0,0-1.619,6.175c1.158,1.979,4.163,3.016,6.175,1.619Z" transform="translate(-5930.716 -7154.514)"/></g><g transform="translate(298.115 1804.526)"><path class="g" d="M5818.447,7133.851q2.906-5.24,6.018-10.359c.162-.267-.256-.509-.417-.244q-3.111,5.12-6.018,10.359c-.15.273.266.515.417.244Z" transform="translate(-5817.998 -7123.133)"/></g><g transform="translate(300.324 1805.13)"><path class="g" d="M5823.042,7132.938q3.2-4.2,6.721-8.137c.207-.229-.134-.572-.342-.34q-3.557,3.987-6.8,8.233c-.187.246.231.487.419.243Z" transform="translate(-5822.576 -7124.383)"/></g><g transform="translate(332.285 1798.227)"><path class="g" d="M5889.066,7118.792a21.068,21.068,0,0,0,7.87-3.488c1.88-1.283,4.152-2.651,4.868-4.921.095-.3-.372-.424-.465-.128-.792,2.5-3.855,4.2-5.97,5.5a19.345,19.345,0,0,1-6.433,2.575c-.3.062-.176.525.129.467Z" transform="translate(-5888.764 -7110.087)"/></g><g transform="translate(335.709 1800.572)"><path class="g" d="M5896.158,7123.367c4.9-1.083,9.385-3.478,11.78-8.058.145-.276-.271-.52-.417-.244-2.345,4.484-6.7,6.777-11.491,7.836-.3.066-.176.533.128.466Z" transform="translate(-5895.856 -7114.944)"/></g><g transform="translate(303.499 1810.485)"><path class="g" d="M5829.5,7139.859a42.812,42.812,0,0,0,4.765-3.974c.225-.216-.117-.558-.341-.342a42.21,42.21,0,0,1-4.667,3.9c-.25.179-.01.6.243.416Z" transform="translate(-5829.146 -7135.475)"/></g><g transform="translate(306.616 1811.106)"><path class="g" d="M5836.009,7140.782a40.335,40.335,0,0,1,3.623-3.617c.234-.205-.108-.547-.342-.343a40.734,40.734,0,0,0-3.623,3.618c-.2.233.136.576.342.342Z" transform="translate(-5835.604 -7136.76)"/></g><g transform="translate(310.304 1807.401)"><path class="g" d="M5843.4,7129.571q4.172,1.758,8.423,3.331c.291.106.416-.358.127-.466q-4.247-1.572-8.422-3.331c-.286-.121-.411.348-.128.466Z" transform="translate(-5843.24 -7129.085)"/></g><g transform="translate(315.884 1806.536)"><path class="g" d="M5854.855,7127.579q2.071,1.745,4.245,3.356c.178.13.348-.165.173-.294q-2.143-1.586-4.177-3.3c-.167-.141-.409.1-.241.242Z" transform="translate(-5854.799 -7127.294)"/></g><g transform="translate(319.426 1800.87)"><path class="g" d="M5862.616,7120.1c.166-1.767,1.13-5.49,3.589-2.325a7.18,7.18,0,0,0,1.438,1.724,4.791,4.791,0,0,0,4.492.663c.291-.1.165-.568-.129-.466a4.316,4.316,0,0,1-5.347-2.149c-.372-.77-.433-1.671-1.4-1.915-2.378-.6-2.981,2.9-3.128,4.469-.029.31.454.307.482,0Z" transform="translate(-5862.132 -7115.561)"/></g><g transform="translate(350.189 1813.773)"><path class="h" d="M5930.647,7142.284q-2.618,7.9-4.737,15.952c-.237.9.235,1.989,0,2.882q2.12-8.051,4.737-15.953c.289-.871-.284-2.023,0-2.881Z" transform="translate(-5925.841 -7142.284)"/></g><g transform="translate(331.299 1813.542)"><path class="h" d="M5910.648,7141.805c-7.924,1.169-15.92,1.088-23.908.956,0,0-.037,2.881,0,2.882,7.989.13,15.984.213,23.908-.956.159-.024-.116-2.864,0-2.882Z" transform="translate(-5886.722 -7141.805)"/></g><g transform="translate(338.089 1828.833)"><path class="h" d="M5912.952,7174.364c-4.059-.146-8.087-.747-12.146-.893.014,0-.057,2.88,0,2.882,4.06.146,8.087.747,12.146.893-.014,0,.057-2.878,0-2.882Z" transform="translate(-5900.783 -7173.472)"/></g><g transform="translate(345.925 1820.086)"><path d="M5919.208,7155.356c-.611.089-1.883.3-2.124,1a4.576,4.576,0,0,0-.043,1.3,12.619,12.619,0,0,0,.014,1.823c.137.907,1.1.979,1.808.717a1.653,1.653,0,0,0,.873-.648,2.647,2.647,0,0,0,.126-1.271,10.4,10.4,0,0,0-.015-2,.671.671,0,0,0-.654-.55c-.516-.069-1.325.013-1.405.634a16.338,16.338,0,0,0-.011,2.143c0,.273-.084.769.147.991.614.588,1.178-.385,1.358-.849a1.726,1.726,0,0,0,.01-.423c0-.341,0-.679,0-1.02a6.438,6.438,0,0,0-.014-1.439,1.2,1.2,0,0,0-1.605.98,20.184,20.184,0,0,0,0,2.882.587.587,0,0,0,.528-.107,2.364,2.364,0,0,0,.011-.422c0-.34,0-.68,0-1.019s0-.68,0-1.019a2.174,2.174,0,0,1-.011-.423.587.587,0,0,1-.528.107v2.882a1.2,1.2,0,0,1,1.605-.98v-2.882c-.139.358-.318.831-.722.967a.574.574,0,0,1-.771-.4v2.882c.068-.835,1.907-.88,2.058-.059l0-2.831c-.087,1.218-2.575,1.653-2.788.268l.008,2.685,0-.122-.007.2c.173-.8,1.479-1.021,2.15-1.116.156-.023-.114-2.865,0-2.882Z" transform="translate(-5917.012 -7155.356)"/></g><g transform="translate(318.099 1843.457)"><path d="M5876.968,7203.76a28.662,28.662,0,0,1-17.5.28c.245.072-.284,2.8,0,2.882a28.676,28.676,0,0,0,17.5-.28c.308-.1-.271-2.792,0-2.882Z" transform="translate(-5859.384 -7203.76)"/></g><g transform="translate(319.769 1827.409)"><path d="M5882.031,7170.522a130.921,130.921,0,0,1-19.113,6.28c-.242.06.2,2.832,0,2.881a130.917,130.917,0,0,0,19.113-6.279c.358-.148-.321-2.747,0-2.882Z" transform="translate(-5862.843 -7170.522)"/></g><g transform="translate(318.11 1834.39)"><path d="M5859.505,7190.71a8.13,8.13,0,0,0,2.118,3.087l0-.052c.054-.9-.25-1.667.954-1.681a11.883,11.883,0,0,1,2.478,1.411l4.955,2.823c-.386-.219.306-2.457,0-2.882a12.347,12.347,0,0,0-6.7-4.746c.295.086-.319,2.663,0,2.881l5.05,3.443c-.436-.3.367-2.417,0-2.882l-4.288-5.42v2.882l4.267,4.188c-.475-.468.477-2.369,0-2.882a37.628,37.628,0,0,0-6.7-5.716c.431.288-.458,2.567,0,2.882l10.639,7.235c-.449-.307.436-2.475,0-2.88l-7.025-6.553v2.882a21.286,21.286,0,0,1,7.446,5.64c-.458-.538.349-2.219,0-2.881a35.4,35.4,0,0,0-4.405-6.511v2.882a7.715,7.715,0,0,1,3.99,5.541v-2.88l-8.9-.515c.122.008-.2,2.808,0,2.882l6.641,2.489V7192.5a40.236,40.236,0,0,0-7.885-.286v2.88a9.689,9.689,0,0,1,4.115.336v-2.881a15.852,15.852,0,0,1-4.645-.008v2.882a8.244,8.244,0,0,0,2.037-2.147c.386-.614.538-1.939.966-2.407-.011-.534.25-.565.785-.09a14.934,14.934,0,0,1,1.37.655,16.891,16.891,0,0,1,2.5,1.711c-.405-.324.248-2.348,0-2.881l-2.334-4.99v2.882a12.63,12.63,0,0,1,5.484,4.783c-.379-.59.146-2.16,0-2.881a7.85,7.85,0,0,0-2.584-4.528c.476.429-.454,2.37,0,2.88a14.364,14.364,0,0,0,6.26,4.16c-.173-.061.084-2.566,0-2.881a2.332,2.332,0,0,0-1.04-1.639c-.943-.434-.872.407-.992,1.277a13.917,13.917,0,0,0-.071,1.676,12.841,12.841,0,0,0,.649,5.079V7193.2a6.39,6.39,0,0,1-4.728-2.563l0,.053a13.061,13.061,0,0,0,.243,4.821l0-.053c.081-3.123.111-5.978-1.592-8.76.34.556-.06,2.2,0,2.882.293,3.351,3.11,5.661,6.3,6.263,4.076.771,8.1-1.3,11.623-3.076a21.014,21.014,0,0,0,0-2.882,20.145,20.145,0,0,0-12.791,1.878c-.267.135.208,2.85,0,2.882a35.175,35.175,0,0,0,11.054-3.6c.409-.213-.376-2.686,0-2.88a35.213,35.213,0,0,1-11.054,3.6v2.882a20.145,20.145,0,0,1,12.791-1.878v-2.882c-3.517,1.777-7.547,3.847-11.623,3.076-3.185-.6-6-2.914-6.3-6.263v2.882a10.772,10.772,0,0,1,1.166,2.46c.609,1.952.271.423.134-.728l0,2.83c.027-.38,1.924,1.115,2.106,1.215a6.606,6.606,0,0,0,2.666.725c-.072-.006.1-2.629,0-2.882-.152-.391-.952-2.136-.2-2.529s1.547,1.5,1.654,1.9v-2.881a14.387,14.387,0,0,1-6.26-4.159v2.88a7.858,7.858,0,0,1,2.584,4.529v-2.881a12.639,12.639,0,0,0-5.484-4.784c.281.13-.177,2.5,0,2.882l2.334,4.989v-2.881a16.823,16.823,0,0,0-2.5-1.712,14.44,14.44,0,0,0-1.37-.655q-.8-.713-.785.092c-.428.466-.58,1.792-.966,2.405a8.214,8.214,0,0,1-2.037,2.147,20.69,20.69,0,0,0,0,2.882,15.819,15.819,0,0,0,4.645.007,26.248,26.248,0,0,0,0-2.881,9.673,9.673,0,0,0-4.115-.335c-.113.014.063,2.877,0,2.88a40.382,40.382,0,0,1,7.885.288c-.171-.023.23-2.795,0-2.882l-6.641-2.489v2.882l8.9.513c-.023,0,.047-2.629,0-2.88a7.718,7.718,0,0,0-3.99-5.543c.4.222-.345,2.478,0,2.882a35.425,35.425,0,0,1,4.405,6.51v-2.881a21.28,21.28,0,0,0-7.446-5.641c.373.172-.356,2.551,0,2.882l7.025,6.551v-2.88l-10.639-7.237v2.882a37.628,37.628,0,0,1,6.7,5.716v-2.882l-4.267-4.188c.478.469-.441,2.324,0,2.882l4.288,5.42v-2.882l-5.05-3.442v2.881a12.36,12.36,0,0,1,6.7,4.747v-2.882l-8.259-4.7,0,.05c-.053.88.147,1.993-.93,1.35-.66-.395-1.052-1.62-1.316-2.282.328.818-.336,2.047,0,2.88Z" transform="translate(-5859.408 -7184.98)"/></g><g transform="translate(304.305 1819.795)"><path d="M5830.96,7157.638c6.293,5.186,16.9,8.262,17.618,17.794l-.013-2.168,0,.721.012-.713-.066.724q-.054,1.282-.264.326a6.6,6.6,0,0,1-.578-1.581,26.38,26.38,0,0,0-1.66-3.4c-.187-.32-2.069-3.548-2.4-3.447a10.689,10.689,0,0,0-.2,2.574,25.58,25.58,0,0,0,1.113,9.188v-2.882l-3.3-9.365c.291.825-.164,2,0,2.88a25.581,25.581,0,0,0,4.779,10.852c-.458-.608.416-2.206,0-2.882a21.257,21.257,0,0,1-2.968-8.048v2.882a19.534,19.534,0,0,0,3.752,7.4c0-.065.008-.131.007-.2.053-3.706-.09-7.132-1.687-10.585.348.751-.188,2.052,0,2.882a30.419,30.419,0,0,0,3.7,9.151v-2.882l-6.463-8.44c.295.387-.016,2.173-.007,2.686a8.743,8.743,0,0,0,2.579,6.335c-.45-.456.317-2.266,0-2.88l-5.241-10.152v2.881l5.211,7.408c-.388-.554.16-2.187,0-2.882a19.618,19.618,0,0,0-5.424-9.741c.458.454-.345,2.277,0,2.882l4.66,8.171c-.385-.676.209-2.1,0-2.881a7.653,7.653,0,0,0-2.792-4.267c.4.315-.235,2.354,0,2.882l2.824,6.316a9.037,9.037,0,0,1,.007-2.686l-.045-3.405a7.99,7.99,0,0,0-.021.862l-.01,4.694c0,.5.031,1.449.018,1.771l.095-2.261c.038-.866-.036-2.1-.007-2.779-.033.768-.053,1.533-.069,2.3-.047,2.145,0-.923,0-1.085,0-.808-.011-1.215,0-.164,0,.851.022,1.7.033,2.554l.008-2.686-2.824-6.316v2.882a7.65,7.65,0,0,1,2.792,4.266v-2.881l-4.66-8.172v2.882a19.618,19.618,0,0,1,5.424,9.741v-2.882l-5.211-7.407c.445.634-.369,2.166,0,2.881l5.241,10.151v-2.88a8.381,8.381,0,0,1-2.565-5.942l-.007,2.684,6.463,8.44c-.459-.6.409-2.208,0-2.882a30.4,30.4,0,0,1-3.7-9.151v2.882a18.266,18.266,0,0,1,1.236,3.449,6.886,6.886,0,0,1,.3,1.6q.163.869-.141-.11a2.39,2.39,0,0,0-.647-1.126,22.473,22.473,0,0,1-2.821-6.2c.232.881-.143,1.971,0,2.882a21.245,21.245,0,0,0,2.968,8.048v-2.882a25.584,25.584,0,0,1-4.779-10.85v2.88l3.3,9.367c-.3-.849.3-2.018,0-2.882a19.248,19.248,0,0,1-.846-3.165,6.649,6.649,0,0,1-.17-2.02c.233-1.312.352-.525.878.181a26.186,26.186,0,0,1,3.285,5.851,6.619,6.619,0,0,0,.578,1.58q.211.954.264-.326l.066-.724c.017-.238.007-.477.014-.715.021-.947.046-1.915-.006-2.862-.52-9.487-11.434-12.722-17.62-17.82.459.378-.484,2.481,0,2.882Z" transform="translate(-5830.817 -7154.756)"/></g><g transform="translate(318.759 1826.442)"><path d="M5866.365,7178.849a39.13,39.13,0,0,0,9.938-2.539v-2.882a18.911,18.911,0,0,1-8.8,1.8v2.882a38.075,38.075,0,0,0,11.625-2.712c.315-.129-.275-2.8,0-2.88a37.129,37.129,0,0,0-7.411,3.117v2.882a27.871,27.871,0,0,1,9.646-4.224v-2.882a20.213,20.213,0,0,1-7.609,3.723v2.881l5.922-3.094c.34-.178-.3-2.788,0-2.883l-5.895,1.843v2.882a24.479,24.479,0,0,1,3.724-2.569c.313-.176-.273-2.812,0-2.882a21.581,21.581,0,0,0-6.215,2.623c-.272.167.217,2.847,0,2.88a4.055,4.055,0,0,0,2.72-1.533c.243-.291-.245-2.819,0-2.882l-13.179,3.348v2.882l17.251-4.882v-2.881a55.509,55.509,0,0,1-10.24,5.929c-.269.119.212,2.845,0,2.882a45.486,45.486,0,0,0,10.1-2.943v-2.88l-6.409,3.446c-.365.2.333,2.757,0,2.882a35.489,35.489,0,0,0,8.687-4.715c.367-.271-.356-2.741,0-2.882a18.472,18.472,0,0,0-5.312,3.188c-.355.3.358,2.738,0,2.882a11.884,11.884,0,0,0,3.8-2.428l0-2.83q-.059,1.09-.942.849v2.882a7.341,7.341,0,0,1,2.536-3.475c.368-.283-.361-2.734,0-2.88l-1.673.677v2.882c1.412-1.053,2.863-2.025,4.374-2.934.376-.227-.354-2.741,0-2.882-.6.242-3.741,1.675-3.85,1.258v2.882a.406.406,0,0,1,.644-.078l-.014-1.058,0,.592.014-1.823c-1.8,2.7-4.331,5.1-6.465,7.549-.3.34.327,2.756,0,2.881a25.329,25.329,0,0,0,9.228-6.12c.49-.507-.469-2.4,0-2.882a25.368,25.368,0,0,1-9.228,6.121v2.881c1.924-2.207,3.963-4.356,5.791-6.644.883-1.106.691-1.915.686-3.322a4.654,4.654,0,0,0-.014-1.055.406.406,0,0,0-.644.076,9.744,9.744,0,0,0,0,2.882c.121.463,3.315-1.043,3.85-1.258v-2.882c-1.511.908-2.962,1.882-4.374,2.934-.371.276.362,2.735,0,2.882l1.673-.679v-2.88a7.322,7.322,0,0,0-2.536,3.473c-.095.259.03,2.882,0,2.882.812,0,.918-.234.95-.951.021-.449-.293-2.56,0-2.83a11.889,11.889,0,0,1-3.8,2.427v2.882a18.472,18.472,0,0,1,5.312-3.187v-2.882a35.489,35.489,0,0,1-8.687,4.715v2.882l6.409-3.448c.382-.205-.353-2.733,0-2.88a45.482,45.482,0,0,1-10.1,2.941v2.882a55.348,55.348,0,0,0,10.24-5.93c.319-.232-.3-2.8,0-2.881l-17.251,4.881c-.262.073.219,2.825,0,2.882l13.179-3.348V7172.4a4.053,4.053,0,0,1-2.72,1.535v2.88a21.631,21.631,0,0,1,6.215-2.621v-2.882a24.479,24.479,0,0,0-3.724,2.569c-.32.267.31,2.783,0,2.882l5.895-1.842v-2.883l-5.922,3.1c-.314.162.27,2.813,0,2.881a20.247,20.247,0,0,0,7.609-3.722c.292-.227-.261-2.822,0-2.882a27.855,27.855,0,0,0-9.646,4.224c-.43.294.412,2.653,0,2.882a37.136,37.136,0,0,1,7.411-3.119v-2.88a38.059,38.059,0,0,1-11.625,2.71c-.051,0-.008,2.882,0,2.882a18.911,18.911,0,0,0,8.8-1.8c.366-.171-.329-2.75,0-2.882a39.212,39.212,0,0,1-9.937,2.539c-.135.016.092,2.869,0,2.882Z" transform="translate(-5860.752 -7168.52)"/></g><g transform="translate(314.777 1816.843)"><path d="M5852.581,7156.313a21.4,21.4,0,0,0,3.815-4.791c.165-.282.015-1.115.015-1.44s-.181-1.157-.015-1.442a21.366,21.366,0,0,1-3.815,4.793c-.153.145-.015,1.22-.015,1.44s.17,1.294.015,1.44Z" transform="translate(-5852.509 -7148.64)"/></g><g transform="translate(324.451 1816.236)"><path d="M5879.281,7150.267c.114.012.307,0,.393.1v-2.881c-.21.4-1.96.306-2.286.316a20.379,20.379,0,0,1-4.784-.413c.172.035-.214,2.836,0,2.882a20.326,20.326,0,0,0,4.784.412c.358-.011,2.075.085,2.286-.316a8.019,8.019,0,0,0,0-2.881c-.086-.093-.278-.085-.393-.1.083.009-.125,2.868,0,2.882Z" transform="translate(-5872.537 -7147.385)"/></g><g transform="translate(298.697 1791.34)"><path d="M5821.332,7125.238c.205-.1.317-.023.339.234v-2.882c-.677,1.261-2.21-3.094-2.25-3.692-.117-1.771.683-3.835,1.248-5.5.656-1.929,1.429-3.822,2.172-5.719.688-1.75,1.366-3.918,3.668-3.665,1.7.188,3.61,1.658,4.981,2.561q1.466.965,2.845,2.053.687.545,1.352,1.118l.886-1.633c1.242-2.292,3.375-8.516,6.74-8.4,3.051.1,2.833,4.583,4.03,6.483,2.136,3.389,6.676,2.459,9.234.2,2.419-2.132,3.6-5.806,6.635-7.225,3.926-1.835,7.433,1.955,7.515,5.705l.007-2.686c-.372,4.651-3.713,7.7-7.4,10.127-3.908,2.569-8.11,4.66-12.828,5.06v2.882l7.5-1.536c.209-.043-.167-2.847,0-2.882l-7.5,1.536c-.163.034.105,2.873,0,2.882,5.431-.461,10.491-3.173,14.777-6.425,3.364-2.553,5.455-5.733,5.465-10.011.006-3.436-.872-7.566-5.069-7.979-4.523-.445-6.317,5.211-9.1,7.669-3.613,3.19-8.612,2.516-10.063-2.288-.426-1.411-.681-3.343-2.13-4.11-2.078-1.1-3.871,1.1-4.838,2.656-.762,1.227-1.4,2.556-2.09,3.824l-.884,1.633-.442.816q-.193,1.308-.777.533c-.856-.17-2.331-1.845-3.134-2.4a31.229,31.229,0,0,0-4.056-2.45c-2.324-1.124-3.844-.467-4.851,1.866a78.6,78.6,0,0,0-3.012,8.057,23.527,23.527,0,0,0-.88,10.121c.161,1.045.537,3.047,1.472,3.655.8.52.623.156.788-.386.119-.4.2-2.784-.349-2.692-.175.028.132,2.859,0,2.881Z" transform="translate(-5819.204 -7095.826)"/></g><g transform="translate(352.024 1820.364)"><path class="h" d="M5945.129,7245.146c15.691,11.543,36.573,14.056,55.485,14.918,9.844.449,19.7.316,29.548.066,10.982-.279,22.648-.795,31.721-7.8,17.287-13.341,7.783-37.339-4.781-50.268-14.4-14.823-34.862-23.477-53.973-30.415-23.446-8.51-48.447-14.836-73.469-15.719.011,0-.047,2.413,0,2.415,21.582.761,43.061,5.689,63.547,12.317,18.946,6.128,38.524,13.765,54.61,25.744,14.741,10.976,34.031,35.664,15.729,52.125-8.236,7.406-19.522,8.811-30.158,9.1-9.22.247-18.442.446-27.665.2-20.468-.544-43.551-2.562-60.595-15.1.373.272-.395,2.122,0,2.413Z" transform="translate(-5929.642 -7155.932)"/></g><g transform="translate(348.733 1828.372)"><path class="h" d="M6015.713,7222.295c-14.949-24.142-40.331-37.473-66.867-45.021-2.4-.683-4.722-1.6-7.146-2.217-6.158-1.565-12.531-2.03-18.845-2.538.047,0-.082,2.408,0,2.414a127.631,127.631,0,0,1,16.86,2.073c2.831.614,5.506,1.617,8.271,2.438,3.614,1.069,7.243,2.062,10.817,3.266,13.264,4.473,26.008,10.846,36.963,19.624a88.287,88.287,0,0,1,19.946,22.375c-.354-.573.364-1.824,0-2.413Z" transform="translate(-5922.828 -7172.519)"/></g><g transform="translate(302.809 1819.238)"><path class="h" d="M5827.856,7156.483a32.8,32.8,0,0,1,13.146,17.4c2.676,8.6.922,17.428-2.867,25.414-.375.792.367,2.106,0,2.882a46.7,46.7,0,0,0,4.212-24.279,32.762,32.762,0,0,0-14.491-24.3c.43.287-.459,2.574,0,2.881Z" transform="translate(-5827.721 -7153.603)"/></g><g transform="translate(333.26 1839.376)"><path class="h" d="M5890.861,7204.238a35.921,35.921,0,0,0,6.725-2.541c1.231-.621,4.719-2.026,5.062-3.4a11.86,11.86,0,0,0,0-2.881q-.246-.248-.325.06c-.437.7.425,2.2,0,2.882.053-.205.161-.225.325-.061v-2.881c-.336,1.341-3.881,2.8-5.062,3.4a35.882,35.882,0,0,1-6.725,2.542c-.264.071.226,2.82,0,2.882Z" transform="translate(-5890.781 -7195.306)"/></g><g transform="translate(330.442 1812.1)"><path class="h" d="M5899.96,7163.838a8.414,8.414,0,0,1-3.617-4.634c-.749-2.257-.21-4.328.38-6.57a22.588,22.588,0,0,0,0-2.881,14.3,14.3,0,0,1-11.715-10.935c.208.906-.211,1.964,0,2.881a14.294,14.294,0,0,0,11.715,10.935v-2.881c-1.414,5.383-2.252,13.559,3.237,16.967-.415-.258.447-2.6,0-2.882Z" transform="translate(-5884.947 -7138.818)"/></g><g transform="translate(336.679 1845.24)"><path class="h" d="M5897.916,7210.331c1.568,8.515,3.889,16.917,5.922,25.328-.218-.9.221-1.969,0-2.88-2.033-8.413-4.354-16.814-5.922-25.329.17.925-.172,1.949,0,2.881Z" transform="translate(-5897.866 -7207.45)"/></g></g></g><g class="c" transform="translate(13952 -5387)"><g transform="translate(-13131 3797)"><path class="d" d="M6040.18,7215.166a130.127,130.127,0,0,0-25.229-14.666,8.97,8.97,0,0,0-2.412-.7c-13.7-8.727-29.561-13.619-45.051-18.116-1.845-.536-3.809-1.183-5.844-1.893a65.823,65.823,0,0,0-12.825-5.123,9.421,9.421,0,0,0-1.826-.32c-4.86-1.812-9.621-3.492-13.8-4.573-2.76-.714-3.693.287-4.436,2.451-3.629-.28-4.485,1.312-.674,2.435-.177,2.7,6.819,2.612,8.609,2.548,3.175.946,6.31,2.1,9.426,3.3.132.226.216.357.216.357,4.8,1.272,10.745,4.192,16.088,7.024,4.956,3.733,9.8,7.685,15.2,10.5,2.8,2.922,5.511,5.905,9.372,7.876.427.218.85.443,1.274.665a60.247,60.247,0,0,0,5.756,6.386A112,112,0,0,1,6009.3,7230.9a4.712,4.712,0,0,0,6.275,1.646c2-1.169,3.082-4.243,1.646-6.275-.141-.2-.281-.392-.423-.588a38.348,38.348,0,0,1,6.087,6.411,8.26,8.26,0,0,0,1.168,1.293c-.44.075-.88.153-1.321.224-17.719,1.994-36,.3-53.665-1.907a124.434,124.434,0,0,1-24.382-6.9q-13.211-4.954-26.421-9.917c-4.165-1.564-10.248-.343-13.952,1.825-3.756,2.2-7.339,6.5-8.32,10.821-1.058,4.635-.828,9.838,1.824,13.952,2.685,4.164,6.188,6.582,10.821,8.321l22.405,8.411c7.217,2.709,14.43,5.6,21.979,7.266,9.039,1.991,18.371,2.7,27.573,3.575,7.806.74,15.627,1.391,23.47,1.55a155.237,155.237,0,0,0,30.451-2.442c4.231-.756,8.729-4.746,10.822-8.322a18.889,18.889,0,0,0,2.111-12.892c2.707-.3,5.468-2.1,5.9-4.877C6055.1,7230.667,6048.91,7221.8,6040.18,7215.166Z" transform="translate(-5559.914 -5342.607)"/><g transform="translate(303.839 1799.103)"><path d="M5870.006,7112.429c-3.1,1.924-6.19,4.239-9.5,5.789-2.941,1.378-6.451.635-9.6.941a35.224,35.224,0,0,0-5.786,1.01c-1.658.448-3.245,1.264-4.916,1.634-1.581.35-2.187-.7-3.574-1.3a4.927,4.927,0,0,0-4.57.116c-2.871,1.761-2.769,5.655-.7,7.967,1.746,1.948,4.682,4.334,7.453,3.512,1.489-.443,2.519-1.72,3.815-2.5a20.289,20.289,0,0,1,4.322-1.765c3.867-1.249,7.759-2.429,11.637-3.643,4.139-1.3,2.371-7.823-1.8-6.519-5.557,1.739-11.7,3.006-16.885,5.71-.4.212-3.313,1.737-3.285,2.283-.028-.541,2.884.916.914-.636q-.287-.218-.565-.447-1.569-1.51-3.163,2.037c.424.763,2.5,1.6,3.3,1.845a8.63,8.63,0,0,0,4.1.047c2.85-.562,5.46-1.922,8.355-2.408,2.683-.448,5.368-.179,8.063-.369,5.982-.421,10.855-4.406,15.787-7.464,3.689-2.289.3-8.14-3.412-5.837Z" transform="translate(-5829.854 -7111.901)"/></g><g transform="translate(309.02 1810.761)"><path class="e" d="M5867.5,7166.142c5.112-2.39,7.4-8.075,2.771-12.231-4.3-3.857-9.932-3.015-14.9-1.147l3.478,8.249,8.053-5.523c4.43-3.038,1.508-8.927-3.478-8.248a91.258,91.258,0,0,0-14.115,3.085l5.55,3.153a26.115,26.115,0,0,1-.988-4.967l-1.32,3.191a18.082,18.082,0,0,1,3-1.712c.116-.068,1.933-1.183,1.96-1.146l-1.138-.045c.274.166.547.334.817.508,1.344,1.02,2.685,1.728,3.185,3.446l4.352-5.713c-3.437-.447-4.205-4.6-6.9-6.086-2.183-1.208-4.579-.532-6.829.022l-7.264,1.788,3.478,8.248c3.364-2.354,7.176-5.4,11.394-5.92,2.419-.3,4.514-1.861,4.514-4.513,0-2.206-2.077-4.815-4.514-4.514-6.094.754-11,3.689-15.949,7.153-4.087,2.858-1.7,9.522,3.478,8.248,3.27-.806,6.545-1.767,9.855-2.379h-2.4l-.642-.46a9.184,9.184,0,0,0,.633.915c.367.509.754,1.011,1.164,1.484a15.9,15.9,0,0,0,3.011,2.627,15.3,15.3,0,0,0,6.97,2.41c2.95.385,5.085-3.187,4.352-5.711-1.477-5.082-7.966-11.806-13.793-10.351a17.493,17.493,0,0,0-4.29,2.192,24.686,24.686,0,0,0-4.441,2.767c-3.058,2.837-1.125,7.429-.393,10.913a4.555,4.555,0,0,0,5.55,3.151,91.285,91.285,0,0,1,14.117-3.086l-3.478-8.247-8.054,5.521a4.555,4.555,0,0,0-1.846,5.637c.833,1.9,3.187,3.416,5.323,2.611a14.983,14.983,0,0,1,4.78-1.36,2.9,2.9,0,0,1,1.072.117c1.393.55.067,1.023.266-.648l.615-2.276a4.6,4.6,0,0,1-1.557,1.051c-2.208,1.032-2.769,4.208-1.619,6.174a4.615,4.615,0,0,0,6.174,1.619Z" transform="translate(-5840.583 -7136.045)"/></g><g transform="translate(332.132 1812.673)"><path class="f" d="M5888.745,7142.57a46.444,46.444,0,0,0,5.543-2.125c.282-.129.037-.545-.244-.416a45.369,45.369,0,0,1-5.427,2.075c-.3.092-.17.56.128.466Z" transform="translate(-5888.449 -7140.005)"/></g><g transform="translate(298.878 1796.341)"><path d="M5827.806,7128.6a5.111,5.111,0,0,1-3.771-3.015l-.866,3.3a2.774,2.774,0,0,1,2.146-.011l-1.687-1.687.869-1.1,2.328,3.056a2.839,2.839,0,0,1,.651-1.286q1.137-.541.083-1.577c-.929-2.178-.636-.034-1.929.522l1.861-.244q-.82,2.886.851,2.349l-2.327-3.057a2.09,2.09,0,0,0,.98.344l-3.792-.488,2.247-.395-3.056-2.327,0-.412,2.971,1.686-.021-.068-3.792-2.925-1.207,2.45,4.412,1.86c.573-1.994,1.244-3.987,1.71-6.01.246-1.075.046-2.943,1.395-3.008,1.367-.064,2.071,2.018,2.908,2.881a5.322,5.322,0,0,0,3.6,1.644c5.314.273,10.1-5.782,10.941-10.57l-4.742-.641a13.8,13.8,0,0,0,1.351,6.326c1.255,2.519,3.546,2.961,6.205,2.629,6.675-.832,13.256-4.034,18.582-8.038l-3.548-2.728a3.364,3.364,0,0,1-1.871,2.862c-2.729,1.49-.294,5.661,2.436,4.171a7.747,7.747,0,0,0,4.092-5.75c.252-1.778-1.642-4.158-3.546-2.726a39.877,39.877,0,0,1-12.59,6.472,31.6,31.6,0,0,1-3.2.812,5.741,5.741,0,0,1-1.818.224c-.434-.071.033.322-.471-.136-.735-.669-.828-3.138-.792-4.118.1-2.668-4.265-3.357-4.742-.643a9.89,9.89,0,0,1-4.4,6.486c-2.732,1.628-3.295-2.211-5.493-3.33-2.521-1.285-6.29-.74-7.778,1.827a12.983,12.983,0,0,0-1.125,3.812c-.478,2.112-1.164,4.188-1.762,6.269-.738,2.571,3.181,4.361,4.413,1.86l1.207-2.451c1.135-2.306-1.9-5.135-3.791-2.926a4.989,4.989,0,0,0-1.222,4.767,2.48,2.48,0,0,0,2.97,1.686,4.22,4.22,0,0,0,3.542-4.243,2.428,2.428,0,0,0-3.056-2.328c-3.145,1.08-5.166,5.545-1.491,7.558,3.286,1.8,6.3-1.919,4.7-4.945a2.448,2.448,0,0,0-3.793-.489,4.533,4.533,0,0,0,.2,7c2.63,1.919,5.974.163,6.889-2.643a2.427,2.427,0,0,0-2.328-3.056c-2.611.259-5.667,1.88-4.491,5.061a3.187,3.187,0,0,0,3,2.162c1.744-.05,2.8-1.521,3.754-2.78,1.732-2.289,1.762-5.65-1.783-6.1-3.267-.414-5.783,2.646-6.651,5.439a2.443,2.443,0,0,0,2.328,3.057,3.774,3.774,0,0,0,3.788-5.008c-1.146-2.937-5.32-2.182-7.554-1.189-1.25.557-1.388,2.241-.865,3.3a9.723,9.723,0,0,0,6.656,5.233c3.025.692,4.315-3.962,1.284-4.656Z" transform="translate(-5819.579 -7106.18)"/></g><g transform="translate(314.496 1840.823)"><path class="e" d="M5854.65,7202.814c.24,3.491-1.06,6.081-2.07,9.317a13.392,13.392,0,0,0,.333,9.208c2.412,5.971,8.064,11.4,14.7,11.894a8.778,8.778,0,0,0,8.142-3.667c1.87-2.906,1.274-6.608.744-9.812a38.317,38.317,0,0,0-8.024-17.363c-1.664-2.12-6.021-1.589-7.088.913-2.382,5.6-1.711,11.032.765,16.486a38.055,38.055,0,0,0,3.742,6.646,12.007,12.007,0,0,0,3.274,3.133c.4.257.831.464,1.246.7,1.329.742.448.463.489-.164-.379,5.8,8.647,5.774,9.025,0a7.6,7.6,0,0,0-3.278-6.546c-1.729-1.3-3.1-1.713-4.227-3.638-1.913-3.259-4.92-8.122-3.243-12.06l-7.087.914a28.7,28.7,0,0,1,5.14,10.67c.09.356,1.068,5.787.769,5.767q1.269-1.266.646-.978a.8.8,0,0,1-.666.013,12.38,12.38,0,0,1-1.572-.5c-2.541-1.207-5.724-4.743-5.521-7.728.135-1.99,1.434-3.973,2-5.862a20.626,20.626,0,0,0,.781-7.336,4.621,4.621,0,0,0-4.512-4.513c-2.313,0-4.683,2.068-4.514,4.513Z" transform="translate(-5851.922 -7198.302)"/></g><g transform="translate(352.542 1819.679)"><path class="e" d="M5937.494,7164.075a5.42,5.42,0,0,1,.75-.479q-.608.229.158-.022.807-.173.116-.038a6.452,6.452,0,0,1,.891.017c-1.159-.147,1.294.45.268.136q.668.437.176.053a5.45,5.45,0,0,1,.616.64,4.513,4.513,0,0,0,6.382-6.382,10.885,10.885,0,0,0-13.912-1.718,4.632,4.632,0,0,0-1.619,6.175c1.158,1.979,4.163,3.016,6.175,1.619Z" transform="translate(-5930.716 -7154.514)"/></g><g transform="translate(298.115 1804.526)"><path class="g" d="M5818.447,7133.851q2.906-5.24,6.018-10.359c.162-.267-.256-.509-.417-.244q-3.111,5.12-6.018,10.359c-.15.273.266.515.417.244Z" transform="translate(-5817.998 -7123.133)"/></g><g transform="translate(300.324 1805.13)"><path class="g" d="M5823.042,7132.938q3.2-4.2,6.721-8.137c.207-.229-.134-.572-.342-.34q-3.557,3.987-6.8,8.233c-.187.246.231.487.419.243Z" transform="translate(-5822.576 -7124.383)"/></g><g transform="translate(332.285 1798.227)"><path class="g" d="M5889.066,7118.792a21.068,21.068,0,0,0,7.87-3.488c1.88-1.283,4.152-2.651,4.868-4.921.095-.3-.372-.424-.465-.128-.792,2.5-3.855,4.2-5.97,5.5a19.345,19.345,0,0,1-6.433,2.575c-.3.062-.176.525.129.467Z" transform="translate(-5888.764 -7110.087)"/></g><g transform="translate(335.709 1800.572)"><path class="g" d="M5896.158,7123.367c4.9-1.083,9.385-3.478,11.78-8.058.145-.276-.271-.52-.417-.244-2.345,4.484-6.7,6.777-11.491,7.836-.3.066-.176.533.128.466Z" transform="translate(-5895.856 -7114.944)"/></g><g transform="translate(303.499 1810.485)"><path class="g" d="M5829.5,7139.859a42.812,42.812,0,0,0,4.765-3.974c.225-.216-.117-.558-.341-.342a42.21,42.21,0,0,1-4.667,3.9c-.25.179-.01.6.243.416Z" transform="translate(-5829.146 -7135.475)"/></g><g transform="translate(306.616 1811.106)"><path class="g" d="M5836.009,7140.782a40.335,40.335,0,0,1,3.623-3.617c.234-.205-.108-.547-.342-.343a40.734,40.734,0,0,0-3.623,3.618c-.2.233.136.576.342.342Z" transform="translate(-5835.604 -7136.76)"/></g><g transform="translate(310.304 1807.401)"><path class="g" d="M5843.4,7129.571q4.172,1.758,8.423,3.331c.291.106.416-.358.127-.466q-4.247-1.572-8.422-3.331c-.286-.121-.411.348-.128.466Z" transform="translate(-5843.24 -7129.085)"/></g><g transform="translate(315.884 1806.536)"><path class="g" d="M5854.855,7127.579q2.071,1.745,4.245,3.356c.178.13.348-.165.173-.294q-2.143-1.586-4.177-3.3c-.167-.141-.409.1-.241.242Z" transform="translate(-5854.799 -7127.294)"/></g><g transform="translate(319.426 1800.87)"><path class="g" d="M5862.616,7120.1c.166-1.767,1.13-5.49,3.589-2.325a7.18,7.18,0,0,0,1.438,1.724,4.791,4.791,0,0,0,4.492.663c.291-.1.165-.568-.129-.466a4.316,4.316,0,0,1-5.347-2.149c-.372-.77-.433-1.671-1.4-1.915-2.378-.6-2.981,2.9-3.128,4.469-.029.31.454.307.482,0Z" transform="translate(-5862.132 -7115.561)"/></g><g transform="translate(350.189 1813.773)"><path class="h" d="M5930.647,7142.284q-2.618,7.9-4.737,15.952c-.237.9.235,1.989,0,2.882q2.12-8.051,4.737-15.953c.289-.871-.284-2.023,0-2.881Z" transform="translate(-5925.841 -7142.284)"/></g><g transform="translate(331.299 1813.542)"><path class="h" d="M5910.648,7141.805c-7.924,1.169-15.92,1.088-23.908.956,0,0-.037,2.881,0,2.882,7.989.13,15.984.213,23.908-.956.159-.024-.116-2.864,0-2.882Z" transform="translate(-5886.722 -7141.805)"/></g><g transform="translate(338.089 1828.833)"><path class="h" d="M5912.952,7174.364c-4.059-.146-8.087-.747-12.146-.893.014,0-.057,2.88,0,2.882,4.06.146,8.087.747,12.146.893-.014,0,.057-2.878,0-2.882Z" transform="translate(-5900.783 -7173.472)"/></g><g transform="translate(345.925 1820.086)"><path d="M5919.208,7155.356c-.611.089-1.883.3-2.124,1a4.576,4.576,0,0,0-.043,1.3,12.619,12.619,0,0,0,.014,1.823c.137.907,1.1.979,1.808.717a1.653,1.653,0,0,0,.873-.648,2.647,2.647,0,0,0,.126-1.271,10.4,10.4,0,0,0-.015-2,.671.671,0,0,0-.654-.55c-.516-.069-1.325.013-1.405.634a16.338,16.338,0,0,0-.011,2.143c0,.273-.084.769.147.991.614.588,1.178-.385,1.358-.849a1.726,1.726,0,0,0,.01-.423c0-.341,0-.679,0-1.02a6.438,6.438,0,0,0-.014-1.439,1.2,1.2,0,0,0-1.605.98,20.184,20.184,0,0,0,0,2.882.587.587,0,0,0,.528-.107,2.364,2.364,0,0,0,.011-.422c0-.34,0-.68,0-1.019s0-.68,0-1.019a2.174,2.174,0,0,1-.011-.423.587.587,0,0,1-.528.107v2.882a1.2,1.2,0,0,1,1.605-.98v-2.882c-.139.358-.318.831-.722.967a.574.574,0,0,1-.771-.4v2.882c.068-.835,1.907-.88,2.058-.059l0-2.831c-.087,1.218-2.575,1.653-2.788.268l.008,2.685,0-.122-.007.2c.173-.8,1.479-1.021,2.15-1.116.156-.023-.114-2.865,0-2.882Z" transform="translate(-5917.012 -7155.356)"/></g><g transform="translate(318.099 1843.457)"><path d="M5876.968,7203.76a28.662,28.662,0,0,1-17.5.28c.245.072-.284,2.8,0,2.882a28.676,28.676,0,0,0,17.5-.28c.308-.1-.271-2.792,0-2.882Z" transform="translate(-5859.384 -7203.76)"/></g><g transform="translate(319.769 1827.409)"><path d="M5882.031,7170.522a130.921,130.921,0,0,1-19.113,6.28c-.242.06.2,2.832,0,2.881a130.917,130.917,0,0,0,19.113-6.279c.358-.148-.321-2.747,0-2.882Z" transform="translate(-5862.843 -7170.522)"/></g><g transform="translate(318.11 1834.39)"><path d="M5859.505,7190.71a8.13,8.13,0,0,0,2.118,3.087l0-.052c.054-.9-.25-1.667.954-1.681a11.883,11.883,0,0,1,2.478,1.411l4.955,2.823c-.386-.219.306-2.457,0-2.882a12.347,12.347,0,0,0-6.7-4.746c.295.086-.319,2.663,0,2.881l5.05,3.443c-.436-.3.367-2.417,0-2.882l-4.288-5.42v2.882l4.267,4.188c-.475-.468.477-2.369,0-2.882a37.628,37.628,0,0,0-6.7-5.716c.431.288-.458,2.567,0,2.882l10.639,7.235c-.449-.307.436-2.475,0-2.88l-7.025-6.553v2.882a21.286,21.286,0,0,1,7.446,5.64c-.458-.538.349-2.219,0-2.881a35.4,35.4,0,0,0-4.405-6.511v2.882a7.715,7.715,0,0,1,3.99,5.541v-2.88l-8.9-.515c.122.008-.2,2.808,0,2.882l6.641,2.489V7192.5a40.236,40.236,0,0,0-7.885-.286v2.88a9.689,9.689,0,0,1,4.115.336v-2.881a15.852,15.852,0,0,1-4.645-.008v2.882a8.244,8.244,0,0,0,2.037-2.147c.386-.614.538-1.939.966-2.407-.011-.534.25-.565.785-.09a14.934,14.934,0,0,1,1.37.655,16.891,16.891,0,0,1,2.5,1.711c-.405-.324.248-2.348,0-2.881l-2.334-4.99v2.882a12.63,12.63,0,0,1,5.484,4.783c-.379-.59.146-2.16,0-2.881a7.85,7.85,0,0,0-2.584-4.528c.476.429-.454,2.37,0,2.88a14.364,14.364,0,0,0,6.26,4.16c-.173-.061.084-2.566,0-2.881a2.332,2.332,0,0,0-1.04-1.639c-.943-.434-.872.407-.992,1.277a13.917,13.917,0,0,0-.071,1.676,12.841,12.841,0,0,0,.649,5.079V7193.2a6.39,6.39,0,0,1-4.728-2.563l0,.053a13.061,13.061,0,0,0,.243,4.821l0-.053c.081-3.123.111-5.978-1.592-8.76.34.556-.06,2.2,0,2.882.293,3.351,3.11,5.661,6.3,6.263,4.076.771,8.1-1.3,11.623-3.076a21.014,21.014,0,0,0,0-2.882,20.145,20.145,0,0,0-12.791,1.878c-.267.135.208,2.85,0,2.882a35.175,35.175,0,0,0,11.054-3.6c.409-.213-.376-2.686,0-2.88a35.213,35.213,0,0,1-11.054,3.6v2.882a20.145,20.145,0,0,1,12.791-1.878v-2.882c-3.517,1.777-7.547,3.847-11.623,3.076-3.185-.6-6-2.914-6.3-6.263v2.882a10.772,10.772,0,0,1,1.166,2.46c.609,1.952.271.423.134-.728l0,2.83c.027-.38,1.924,1.115,2.106,1.215a6.606,6.606,0,0,0,2.666.725c-.072-.006.1-2.629,0-2.882-.152-.391-.952-2.136-.2-2.529s1.547,1.5,1.654,1.9v-2.881a14.387,14.387,0,0,1-6.26-4.159v2.88a7.858,7.858,0,0,1,2.584,4.529v-2.881a12.639,12.639,0,0,0-5.484-4.784c.281.13-.177,2.5,0,2.882l2.334,4.989v-2.881a16.823,16.823,0,0,0-2.5-1.712,14.44,14.44,0,0,0-1.37-.655q-.8-.713-.785.092c-.428.466-.58,1.792-.966,2.405a8.214,8.214,0,0,1-2.037,2.147,20.69,20.69,0,0,0,0,2.882,15.819,15.819,0,0,0,4.645.007,26.248,26.248,0,0,0,0-2.881,9.673,9.673,0,0,0-4.115-.335c-.113.014.063,2.877,0,2.88a40.382,40.382,0,0,1,7.885.288c-.171-.023.23-2.795,0-2.882l-6.641-2.489v2.882l8.9.513c-.023,0,.047-2.629,0-2.88a7.718,7.718,0,0,0-3.99-5.543c.4.222-.345,2.478,0,2.882a35.425,35.425,0,0,1,4.405,6.51v-2.881a21.28,21.28,0,0,0-7.446-5.641c.373.172-.356,2.551,0,2.882l7.025,6.551v-2.88l-10.639-7.237v2.882a37.628,37.628,0,0,1,6.7,5.716v-2.882l-4.267-4.188c.478.469-.441,2.324,0,2.882l4.288,5.42v-2.882l-5.05-3.442v2.881a12.36,12.36,0,0,1,6.7,4.747v-2.882l-8.259-4.7,0,.05c-.053.88.147,1.993-.93,1.35-.66-.395-1.052-1.62-1.316-2.282.328.818-.336,2.047,0,2.88Z" transform="translate(-5859.408 -7184.98)"/></g><g transform="translate(304.305 1819.795)"><path d="M5830.96,7157.638c6.293,5.186,16.9,8.262,17.618,17.794l-.013-2.168,0,.721.012-.713-.066.724q-.054,1.282-.264.326a6.6,6.6,0,0,1-.578-1.581,26.38,26.38,0,0,0-1.66-3.4c-.187-.32-2.069-3.548-2.4-3.447a10.689,10.689,0,0,0-.2,2.574,25.58,25.58,0,0,0,1.113,9.188v-2.882l-3.3-9.365c.291.825-.164,2,0,2.88a25.581,25.581,0,0,0,4.779,10.852c-.458-.608.416-2.206,0-2.882a21.257,21.257,0,0,1-2.968-8.048v2.882a19.534,19.534,0,0,0,3.752,7.4c0-.065.008-.131.007-.2.053-3.706-.09-7.132-1.687-10.585.348.751-.188,2.052,0,2.882a30.419,30.419,0,0,0,3.7,9.151v-2.882l-6.463-8.44c.295.387-.016,2.173-.007,2.686a8.743,8.743,0,0,0,2.579,6.335c-.45-.456.317-2.266,0-2.88l-5.241-10.152v2.881l5.211,7.408c-.388-.554.16-2.187,0-2.882a19.618,19.618,0,0,0-5.424-9.741c.458.454-.345,2.277,0,2.882l4.66,8.171c-.385-.676.209-2.1,0-2.881a7.653,7.653,0,0,0-2.792-4.267c.4.315-.235,2.354,0,2.882l2.824,6.316a9.037,9.037,0,0,1,.007-2.686l-.045-3.405a7.99,7.99,0,0,0-.021.862l-.01,4.694c0,.5.031,1.449.018,1.771l.095-2.261c.038-.866-.036-2.1-.007-2.779-.033.768-.053,1.533-.069,2.3-.047,2.145,0-.923,0-1.085,0-.808-.011-1.215,0-.164,0,.851.022,1.7.033,2.554l.008-2.686-2.824-6.316v2.882a7.65,7.65,0,0,1,2.792,4.266v-2.881l-4.66-8.172v2.882a19.618,19.618,0,0,1,5.424,9.741v-2.882l-5.211-7.407c.445.634-.369,2.166,0,2.881l5.241,10.151v-2.88a8.381,8.381,0,0,1-2.565-5.942l-.007,2.684,6.463,8.44c-.459-.6.409-2.208,0-2.882a30.4,30.4,0,0,1-3.7-9.151v2.882a18.266,18.266,0,0,1,1.236,3.449,6.886,6.886,0,0,1,.3,1.6q.163.869-.141-.11a2.39,2.39,0,0,0-.647-1.126,22.473,22.473,0,0,1-2.821-6.2c.232.881-.143,1.971,0,2.882a21.245,21.245,0,0,0,2.968,8.048v-2.882a25.584,25.584,0,0,1-4.779-10.85v2.88l3.3,9.367c-.3-.849.3-2.018,0-2.882a19.248,19.248,0,0,1-.846-3.165,6.649,6.649,0,0,1-.17-2.02c.233-1.312.352-.525.878.181a26.186,26.186,0,0,1,3.285,5.851,6.619,6.619,0,0,0,.578,1.58q.211.954.264-.326l.066-.724c.017-.238.007-.477.014-.715.021-.947.046-1.915-.006-2.862-.52-9.487-11.434-12.722-17.62-17.82.459.378-.484,2.481,0,2.882Z" transform="translate(-5830.817 -7154.756)"/></g><g transform="translate(318.759 1826.442)"><path d="M5866.365,7178.849a39.13,39.13,0,0,0,9.938-2.539v-2.882a18.911,18.911,0,0,1-8.8,1.8v2.882a38.075,38.075,0,0,0,11.625-2.712c.315-.129-.275-2.8,0-2.88a37.129,37.129,0,0,0-7.411,3.117v2.882a27.871,27.871,0,0,1,9.646-4.224v-2.882a20.213,20.213,0,0,1-7.609,3.723v2.881l5.922-3.094c.34-.178-.3-2.788,0-2.883l-5.895,1.843v2.882a24.479,24.479,0,0,1,3.724-2.569c.313-.176-.273-2.812,0-2.882a21.581,21.581,0,0,0-6.215,2.623c-.272.167.217,2.847,0,2.88a4.055,4.055,0,0,0,2.72-1.533c.243-.291-.245-2.819,0-2.882l-13.179,3.348v2.882l17.251-4.882v-2.881a55.509,55.509,0,0,1-10.24,5.929c-.269.119.212,2.845,0,2.882a45.486,45.486,0,0,0,10.1-2.943v-2.88l-6.409,3.446c-.365.2.333,2.757,0,2.882a35.489,35.489,0,0,0,8.687-4.715c.367-.271-.356-2.741,0-2.882a18.472,18.472,0,0,0-5.312,3.188c-.355.3.358,2.738,0,2.882a11.884,11.884,0,0,0,3.8-2.428l0-2.83q-.059,1.09-.942.849v2.882a7.341,7.341,0,0,1,2.536-3.475c.368-.283-.361-2.734,0-2.88l-1.673.677v2.882c1.412-1.053,2.863-2.025,4.374-2.934.376-.227-.354-2.741,0-2.882-.6.242-3.741,1.675-3.85,1.258v2.882a.406.406,0,0,1,.644-.078l-.014-1.058,0,.592.014-1.823c-1.8,2.7-4.331,5.1-6.465,7.549-.3.34.327,2.756,0,2.881a25.329,25.329,0,0,0,9.228-6.12c.49-.507-.469-2.4,0-2.882a25.368,25.368,0,0,1-9.228,6.121v2.881c1.924-2.207,3.963-4.356,5.791-6.644.883-1.106.691-1.915.686-3.322a4.654,4.654,0,0,0-.014-1.055.406.406,0,0,0-.644.076,9.744,9.744,0,0,0,0,2.882c.121.463,3.315-1.043,3.85-1.258v-2.882c-1.511.908-2.962,1.882-4.374,2.934-.371.276.362,2.735,0,2.882l1.673-.679v-2.88a7.322,7.322,0,0,0-2.536,3.473c-.095.259.03,2.882,0,2.882.812,0,.918-.234.95-.951.021-.449-.293-2.56,0-2.83a11.889,11.889,0,0,1-3.8,2.427v2.882a18.472,18.472,0,0,1,5.312-3.187v-2.882a35.489,35.489,0,0,1-8.687,4.715v2.882l6.409-3.448c.382-.205-.353-2.733,0-2.88a45.482,45.482,0,0,1-10.1,2.941v2.882a55.348,55.348,0,0,0,10.24-5.93c.319-.232-.3-2.8,0-2.881l-17.251,4.881c-.262.073.219,2.825,0,2.882l13.179-3.348V7172.4a4.053,4.053,0,0,1-2.72,1.535v2.88a21.631,21.631,0,0,1,6.215-2.621v-2.882a24.479,24.479,0,0,0-3.724,2.569c-.32.267.31,2.783,0,2.882l5.895-1.842v-2.883l-5.922,3.1c-.314.162.27,2.813,0,2.881a20.247,20.247,0,0,0,7.609-3.722c.292-.227-.261-2.822,0-2.882a27.855,27.855,0,0,0-9.646,4.224c-.43.294.412,2.653,0,2.882a37.136,37.136,0,0,1,7.411-3.119v-2.88a38.059,38.059,0,0,1-11.625,2.71c-.051,0-.008,2.882,0,2.882a18.911,18.911,0,0,0,8.8-1.8c.366-.171-.329-2.75,0-2.882a39.212,39.212,0,0,1-9.937,2.539c-.135.016.092,2.869,0,2.882Z" transform="translate(-5860.752 -7168.52)"/></g><g transform="translate(314.777 1816.843)"><path d="M5852.581,7156.313a21.4,21.4,0,0,0,3.815-4.791c.165-.282.015-1.115.015-1.44s-.181-1.157-.015-1.442a21.366,21.366,0,0,1-3.815,4.793c-.153.145-.015,1.22-.015,1.44s.17,1.294.015,1.44Z" transform="translate(-5852.509 -7148.64)"/></g><g transform="translate(324.451 1816.236)"><path d="M5879.281,7150.267c.114.012.307,0,.393.1v-2.881c-.21.4-1.96.306-2.286.316a20.379,20.379,0,0,1-4.784-.413c.172.035-.214,2.836,0,2.882a20.326,20.326,0,0,0,4.784.412c.358-.011,2.075.085,2.286-.316a8.019,8.019,0,0,0,0-2.881c-.086-.093-.278-.085-.393-.1.083.009-.125,2.868,0,2.882Z" transform="translate(-5872.537 -7147.385)"/></g><g transform="translate(298.697 1791.34)"><path d="M5821.332,7125.238c.205-.1.317-.023.339.234v-2.882c-.677,1.261-2.21-3.094-2.25-3.692-.117-1.771.683-3.835,1.248-5.5.656-1.929,1.429-3.822,2.172-5.719.688-1.75,1.366-3.918,3.668-3.665,1.7.188,3.61,1.658,4.981,2.561q1.466.965,2.845,2.053.687.545,1.352,1.118l.886-1.633c1.242-2.292,3.375-8.516,6.74-8.4,3.051.1,2.833,4.583,4.03,6.483,2.136,3.389,6.676,2.459,9.234.2,2.419-2.132,3.6-5.806,6.635-7.225,3.926-1.835,7.433,1.955,7.515,5.705l.007-2.686c-.372,4.651-3.713,7.7-7.4,10.127-3.908,2.569-8.11,4.66-12.828,5.06v2.882l7.5-1.536c.209-.043-.167-2.847,0-2.882l-7.5,1.536c-.163.034.105,2.873,0,2.882,5.431-.461,10.491-3.173,14.777-6.425,3.364-2.553,5.455-5.733,5.465-10.011.006-3.436-.872-7.566-5.069-7.979-4.523-.445-6.317,5.211-9.1,7.669-3.613,3.19-8.612,2.516-10.063-2.288-.426-1.411-.681-3.343-2.13-4.11-2.078-1.1-3.871,1.1-4.838,2.656-.762,1.227-1.4,2.556-2.09,3.824l-.884,1.633-.442.816q-.193,1.308-.777.533c-.856-.17-2.331-1.845-3.134-2.4a31.229,31.229,0,0,0-4.056-2.45c-2.324-1.124-3.844-.467-4.851,1.866a78.6,78.6,0,0,0-3.012,8.057,23.527,23.527,0,0,0-.88,10.121c.161,1.045.537,3.047,1.472,3.655.8.52.623.156.788-.386.119-.4.2-2.784-.349-2.692-.175.028.132,2.859,0,2.881Z" transform="translate(-5819.204 -7095.826)"/></g><g transform="translate(352.024 1820.364)"><path class="h" d="M5945.129,7245.146c15.691,11.543,36.573,14.056,55.485,14.918,9.844.449,19.7.316,29.548.066,10.982-.279,22.648-.795,31.721-7.8,17.287-13.341,7.783-37.339-4.781-50.268-14.4-14.823-34.862-23.477-53.973-30.415-23.446-8.51-48.447-14.836-73.469-15.719.011,0-.047,2.413,0,2.415,21.582.761,43.061,5.689,63.547,12.317,18.946,6.128,38.524,13.765,54.61,25.744,14.741,10.976,34.031,35.664,15.729,52.125-8.236,7.406-19.522,8.811-30.158,9.1-9.22.247-18.442.446-27.665.2-20.468-.544-43.551-2.562-60.595-15.1.373.272-.395,2.122,0,2.413Z" transform="translate(-5929.642 -7155.932)"/></g><g transform="translate(348.733 1828.372)"><path class="h" d="M6015.713,7222.295c-14.949-24.142-40.331-37.473-66.867-45.021-2.4-.683-4.722-1.6-7.146-2.217-6.158-1.565-12.531-2.03-18.845-2.538.047,0-.082,2.408,0,2.414a127.631,127.631,0,0,1,16.86,2.073c2.831.614,5.506,1.617,8.271,2.438,3.614,1.069,7.243,2.062,10.817,3.266,13.264,4.473,26.008,10.846,36.963,19.624a88.287,88.287,0,0,1,19.946,22.375c-.354-.573.364-1.824,0-2.413Z" transform="translate(-5922.828 -7172.519)"/></g><g transform="translate(302.809 1819.238)"><path class="h" d="M5827.856,7156.483a32.8,32.8,0,0,1,13.146,17.4c2.676,8.6.922,17.428-2.867,25.414-.375.792.367,2.106,0,2.882a46.7,46.7,0,0,0,4.212-24.279,32.762,32.762,0,0,0-14.491-24.3c.43.287-.459,2.574,0,2.881Z" transform="translate(-5827.721 -7153.603)"/></g><g transform="translate(333.26 1839.376)"><path class="h" d="M5890.861,7204.238a35.921,35.921,0,0,0,6.725-2.541c1.231-.621,4.719-2.026,5.062-3.4a11.86,11.86,0,0,0,0-2.881q-.246-.248-.325.06c-.437.7.425,2.2,0,2.882.053-.205.161-.225.325-.061v-2.881c-.336,1.341-3.881,2.8-5.062,3.4a35.882,35.882,0,0,1-6.725,2.542c-.264.071.226,2.82,0,2.882Z" transform="translate(-5890.781 -7195.306)"/></g><g transform="translate(330.442 1812.1)"><path class="h" d="M5899.96,7163.838a8.414,8.414,0,0,1-3.617-4.634c-.749-2.257-.21-4.328.38-6.57a22.588,22.588,0,0,0,0-2.881,14.3,14.3,0,0,1-11.715-10.935c.208.906-.211,1.964,0,2.881a14.294,14.294,0,0,0,11.715,10.935v-2.881c-1.414,5.383-2.252,13.559,3.237,16.967-.415-.258.447-2.6,0-2.882Z" transform="translate(-5884.947 -7138.818)"/></g><g transform="translate(336.679 1845.24)"><path class="h" d="M5897.916,7210.331c1.568,8.515,3.889,16.917,5.922,25.328-.218-.9.221-1.969,0-2.88-2.033-8.413-4.354-16.814-5.922-25.329.17.925-.172,1.949,0,2.881Z" transform="translate(-5897.866 -7207.45)"/></g></g></g></g></svg>